<svg version="1.1" xmlns="http://www.w3.org/2000/svg" xmlns:xlink="http://www.w3.org/1999/xlink" width="410.54791" height="304.04594" viewBox="0,0,410.54791,304.04594"><g transform="translate(-45.44439,-39.48896)"><g data-paper-data="{&quot;isPaintingLayer&quot;:true}" fill-rule="nonzero" stroke="none" stroke-width="0" stroke-linecap="butt" stroke-linejoin="miter" stroke-miterlimit="10" stroke-dasharray="" stroke-dashoffset="0" style="mix-blend-mode: normal"><path d="M105.77154,121.83944c0,41.13957 -11.11674,74.48978 -24.82993,74.48978c-13.71319,0 -24.82992,-33.35021 -24.82992,-74.48978c0,-41.13957 11.11673,-74.48978 24.82992,-74.48978c13.71319,0 24.82993,33.35021 24.82993,74.48978z" fill="#9966ff"/><path d="M213.85475,134.98469v-67.18686h16.55328v67.18686z" fill="#9966ff"/><path d="M302.4635,179.77593v-53.37494c6.00139,0.24148 12.0038,0.3372 18.04281,0.43132c-5.17608,4.58036 -8.43935,11.27338 -8.43935,18.72858c0,13.80712 11.19288,25 25,25c8.77562,0 16.49517,-4.5216 20.95601,-11.36215c4.08071,2.89613 9.06797,4.59865 14.45288,4.59865c5.86233,0 11.25339,-2.01779 15.51653,-5.39675c4.43989,6.95302 12.22449,11.56347 21.08592,11.56347c13.80712,0 25,-11.19288 25,-25c0,-10.05212 -5.93269,-18.71859 -14.48764,-22.68899c0.75327,-2.38149 1.15958,-4.9172 1.15958,-7.54781c0,-3.92563 -0.90481,-7.63994 -2.51725,-10.94575c8.53623,-3.97773 14.45283,-12.63432 14.45283,-22.6728c0,-13.80712 -11.19288,-25 -25,-25c-8.01938,0 -15.15686,3.77587 -19.73157,9.64676c-3.93223,-2.57772 -8.63507,-4.07682 -13.68805,-4.07682c-5.75144,0 -11.04926,1.94218 -15.27339,5.20646c-4.55208,-6.17428 -11.87604,-10.17962 -20.1355,-10.17962c-13.80712,0 -25,11.19288 -25,25c0,6.38559 2.39408,12.21201 6.33361,16.63065c-3.1492,0.06628 -5.87098,0.172 -7.29514,0.15186c-3.04346,-0.04304 -6.34914,-0.25959 -9.39136,-0.35676c-0.34684,-0.01108 -0.69382,-0.01919 -1.0409,-0.02538v-51.72997h140.21605v133.4z" fill="#9966ff"/><path d="M250.25,339.72376v-90h18.5v90z" fill="#9966ff"/><path d="M45.44439,206.113v-166.62405h62.69874v166.62405z" fill="#ffffff"/><path d="M297.95712,188.93526v-148.58742h158.03518v148.58742z" fill="#ffffff"/><path d="M244.70614,343.53489v-93.81114h30.91993v93.81114z" fill="#ffffff"/><path d="M209.49178,145.99092v-86.74757h32.6377v86.74757z" fill="#ffffff"/></g></g></svg>