<svg version="1.1" xmlns="http://www.w3.org/2000/svg" xmlns:xlink="http://www.w3.org/1999/xlink" width="600.09008" height="455.96495" viewBox="0,0,600.09008,455.96495"><g transform="translate(73.04504,24.24121)"><g data-paper-data="{&quot;isPaintingLayer&quot;:true}" fill="#9966ff" fill-rule="nonzero" stroke="#000000" stroke-width="10" stroke-linecap="butt" stroke-linejoin="miter" stroke-miterlimit="10" stroke-dasharray="" stroke-dashoffset="0" style="mix-blend-mode: normal"><path d="M-3.32801,10.78883v-30.03003h510.51051v30.03003z"/><path d="M475.49849,399.69672v-402.4024h46.54655v402.4024z"/><path d="M-29.00601,426.72375v-75.07508h534.53453v75.07508z"/><path d="M-68.04504,411.70872v-429.42943h76.57658v429.42943z"/><path d="M105.77154,121.83943c0,41.13957 -11.11674,74.48978 -24.82993,74.48978c-13.71319,0 -24.82992,-33.35021 -24.82992,-74.48978c0,-41.13957 11.11673,-74.48978 24.82992,-74.48978c13.71319,0 24.82993,33.35021 24.82993,74.48978z"/><path d="M151.5365,282.0168v-111.00438h22.39562v111.00438z"/><path d="M202.17008,240.14673v-21.4219h131.45255v21.4219z"/><path d="M213.85475,134.98469v-67.18686h16.55328v67.18686z"/><path d="M35.66351,323.88687v-30.1854h98.34598v30.1854z"/><path d="M302.4635,179.77593v-53.37494c6.00139,0.24148 12.0038,0.3372 18.04281,0.43133c-5.17608,4.58036 -8.43935,11.27338 -8.43935,18.72858c0,13.80712 11.19288,25 25,25c8.77562,0 16.49517,-4.5216 20.95601,-11.36215c4.08071,2.89613 9.06797,4.59866 14.45288,4.59866c5.86233,0 11.25338,-2.0178 15.51653,-5.39675c4.43989,6.95301 12.22449,11.56346 21.08592,11.56346c13.80712,0 25,-11.19288 25,-25c0,-10.05212 -5.93268,-18.71859 -14.48764,-22.68899c0.75327,-2.38148 1.15958,-4.9172 1.15958,-7.54781c0,-3.92563 -0.90481,-7.63994 -2.51725,-10.94575c8.53623,-3.97773 14.45283,-12.63432 14.45283,-22.6728c0,-13.80712 -11.19288,-25 -25,-25c-8.01938,0 -15.15686,3.77587 -19.73157,9.64675c-3.93223,-2.57771 -8.63507,-4.07681 -13.68805,-4.07681c-5.75144,0 -11.04926,1.94217 -15.27339,5.20646c-4.55208,-6.17428 -11.87604,-10.17962 -20.1355,-10.17962c-13.80712,0 -25,11.19288 -25,25c0,6.38559 2.39408,12.21201 6.33361,16.63065c-3.1492,0.06628 -5.87098,0.172 -7.29514,0.15186c-3.04346,-0.04305 -6.34914,-0.25959 -9.39135,-0.35676c-0.34683,-0.01108 -0.69383,-0.01919 -1.04091,-0.02538v-51.72997h140.21605v133.4z"/><path d="M250.25,339.72375v-90h18.5v90z"/><path d="M388.25,304.22375v-43h6v43z"/></g></g></svg>